<svg width="290" height="91" viewBox="0 0 290 91" fill="none" xmlns="http://www.w3.org/2000/svg">
<path d="M0.125 1.49999H13.875V76.5H36.5V89H0.125V1.49999ZM43.0938 1.49999H80.5938V14H56.8438V37.125H75.7188V49.625H56.8438V76.5H80.5938V89H43.0938V1.49999ZM106.623 90.25C99.9564 90.25 94.9147 88.375 91.498 84.625C88.0814 80.7917 86.373 75.3333 86.373 68.25V63.25H99.373V69.25C99.373 74.9167 101.748 77.75 106.498 77.75C108.831 77.75 110.581 77.0833 111.748 75.75C112.998 74.3333 113.623 72.0833 113.623 69C113.623 65.3333 112.79 62.125 111.123 59.375C109.456 56.5417 106.373 53.1667 101.873 49.25C96.2064 44.25 92.248 39.75 89.998 35.75C87.748 31.6667 86.623 27.0833 86.623 22C86.623 15.0833 88.373 9.75 91.873 6C95.373 2.16666 100.456 0.249995 107.123 0.249995C113.706 0.249995 118.665 2.16666 121.998 6C125.415 9.75 127.123 15.1667 127.123 22.25V25.875H114.123V21.375C114.123 18.375 113.54 16.2083 112.373 14.875C111.206 13.4583 109.498 12.75 107.248 12.75C102.665 12.75 100.373 15.5417 100.373 21.125C100.373 24.2917 101.206 27.25 102.873 30C104.623 32.75 107.748 36.0833 112.248 40C117.998 45 121.956 49.5417 124.123 53.625C126.29 57.7083 127.373 62.5 127.373 68C127.373 75.1667 125.581 80.6667 121.998 84.5C118.498 88.3333 113.373 90.25 106.623 90.25ZM135.257 1.49999H171.632V14H149.007V38.375H166.757V50.875H149.007V89H135.257V1.49999ZM178.226 1.49999H191.976V76.5H214.601V89H178.226V1.49999ZM221.194 1.49999H234.944V89H221.194V1.49999ZM257.367 44.25L242.242 1.49999H256.742L265.992 29.75H266.242L275.742 1.49999H288.742L273.617 44.25L289.492 89H274.992L264.992 58.5H264.742L254.492 89H241.492L257.367 44.25Z" fill="#EC2516"/>
</svg>
