<svg width="289" height="88" viewBox="0 0 289 88" fill="none" xmlns="http://www.w3.org/2000/svg">
<path d="M0.125 0.499994H13.875V75.5H36.5V88H0.125V0.499994ZM43.0938 0.499994H80.5938V13H56.8438V36.125H75.7188V48.625H56.8438V75.5H80.5938V88H43.0938V0.499994ZM99.2539 13H84.8789V0.499994H127.379V13H113.004V88H99.2539V13ZM134.036 0.499994H170.411V13H147.786V37.375H165.536V49.875H147.786V88H134.036V0.499994ZM177.005 0.499994H190.755V75.5H213.38V88H177.005V0.499994ZM219.974 0.499994H233.724V88H219.974V0.499994ZM256.146 43.25L241.021 0.499994H255.521L264.771 28.75H265.021L274.521 0.499994H287.521L272.396 43.25L288.271 88H273.771L263.771 57.5H263.521L253.271 88H240.271L256.146 43.25Z" fill="#EC2516"/>
</svg>
