<svg width="500" height="500" viewBox="0 0 500 500" fill="none" xmlns="http://www.w3.org/2000/svg">
<path d="M268.945 488.965C137.109 488.965 29.9805 381.738 29.9805 250C29.9805 118.262 137.207 11.0352 268.945 11.0352C276.953 11.0352 284.961 11.4258 292.969 12.207C300 12.8906 306.152 17.2852 309.082 23.6328C312.012 29.9805 311.426 37.5 307.52 43.3594C285.059 76.3672 273.145 114.941 273.145 154.883C273.145 257.422 350 342.578 452.051 352.734C459.082 353.418 465.234 357.813 468.164 364.16C471.191 370.508 470.508 378.027 466.602 383.887C421.875 449.707 348.047 488.965 268.945 488.965V488.965ZM256.738 51.4648C152.734 57.8125 70.0195 144.434 70.0195 250C70.0195 359.668 159.277 448.926 268.945 448.926C324.023 448.926 375.977 426.074 413.281 386.719C368.164 375.293 327.246 350.781 295.312 315.82C255.176 271.68 233.008 214.648 233.008 155.078C233.105 118.848 241.211 83.5938 256.738 51.4648Z" fill="white"/>
</svg>
