<svg width="490" height="490" viewBox="0 0 490 490" fill="none" xmlns="http://www.w3.org/2000/svg">
<path d="M490 245C490 109.9 380.1 0 245 0C109.9 0 0 109.9 0 245C0 380.1 109.9 490 245 490C380.1 490 490 380.1 490 245ZM34.3 245C34.3 128.8 128.8 34.3 245 34.3C361.2 34.3 455.7 128.8 455.7 245C455.7 361.2 361.2 455.7 245 455.7C128.8 455.7 34.3 361.2 34.3 245Z" fill="#EC2516"/>
<path d="M302.3 232.9L230.2 160.8C223.5 154.1 212.6 154.1 205.9 160.8C199.2 167.5 199.2 178.4 205.9 185.1L265.9 245.1L205.9 305.1C199.2 311.8 199.2 322.7 205.9 329.4C209.2 332.7 213.6 334.4 218 334.4C222.4 334.4 226.8 332.7 230.1 329.4L302.2 257.3C309 250.4 309 239.6 302.3 232.9Z" fill="#EC2516"/>
</svg>
