<svg width="490" height="490" viewBox="0 0 490 490" fill="none" xmlns="http://www.w3.org/2000/svg">
<path d="M0 245C0 380.1 109.9 490 245 490C380.1 490 490 380.1 490 245C490 109.9 380.1 0 245 0C109.9 0 0 109.9 0 245ZM455.7 245C455.7 361.2 361.2 455.7 245 455.7C128.8 455.7 34.3 361.2 34.3 245C34.3 128.8 128.8 34.3 245 34.3C361.2 34.3 455.7 128.8 455.7 245Z" fill="#EC2516"/>
<path d="M187.7 257.1L259.8 329.2C266.5 335.9 277.4 335.9 284.1 329.2C290.8 322.5 290.8 311.6 284.1 304.9L224.1 244.9L284.1 184.9C290.8 178.2 290.8 167.3 284.1 160.6C280.8 157.3 276.4 155.6 272 155.6C267.6 155.6 263.2 157.3 259.9 160.6L187.8 232.7C181 239.6 181 250.4 187.7 257.1Z" fill="#EC2516"/>
</svg>
