<svg width="500" height="500" viewBox="0 0 500 500" fill="none" xmlns="http://www.w3.org/2000/svg">
<path d="M250 429.898C238.469 429.898 229.184 439.184 229.184 450.714V479.184C229.184 490.714 238.469 500 250 500C261.531 500 270.816 490.714 270.816 479.184V450.714C270.816 439.184 261.531 429.898 250 429.898V429.898Z" fill="#FFDE55"/>
<path d="M250 93.3673C163.673 93.3673 93.3672 163.571 93.3672 250C93.3672 336.327 163.571 406.633 250 406.633C336.326 406.633 406.632 336.429 406.632 250C406.632 163.673 336.326 93.3673 250 93.3673ZM250 364.898C186.632 364.898 135.102 313.367 135.102 250C135.102 186.633 186.632 135.102 250 135.102C313.367 135.102 364.898 186.633 364.898 250C364.898 313.367 313.367 364.898 250 364.898Z" fill="#FFDE55"/>
<path d="M250 70.102C261.531 70.102 270.816 60.8163 270.816 49.2857V20.8163C270.816 9.28571 261.531 0 250 0C238.469 0 229.184 9.28571 229.184 20.8163V49.2857C229.184 60.8163 238.469 70.102 250 70.102Z" fill="#FFDE55"/>
<path d="M479.184 229.184H450.714C439.184 229.184 429.898 238.469 429.898 250C429.898 261.531 439.184 270.816 450.714 270.816H479.184C490.714 270.816 500 261.531 500 250C500 238.469 490.714 229.184 479.184 229.184V229.184Z" fill="#FFDE55"/>
<path d="M49.2857 229.184H20.8163C9.28571 229.184 0 238.469 0 250C0 261.531 9.28571 270.816 20.8163 270.816H49.2857C60.8163 270.816 70.102 261.531 70.102 250C70.102 238.469 60.8163 229.184 49.2857 229.184V229.184Z" fill="#FFDE55"/>
<path d="M406.633 122.857L426.735 102.755C434.898 94.5918 434.898 81.4286 426.735 73.2653C418.572 65.102 405.408 65.102 397.245 73.2653L377.143 93.3673C368.98 101.531 368.98 114.694 377.143 122.857C385.306 131.02 398.469 130.918 406.633 122.857Z" fill="#FFDE55"/>
<path d="M93.3671 377.143L73.265 397.245C65.1018 405.408 65.1018 418.571 73.265 426.735C81.4283 434.898 94.5916 434.898 102.755 426.735L122.857 406.633C131.02 398.469 131.02 385.306 122.857 377.143C114.694 368.98 101.53 369.082 93.3671 377.143V377.143Z" fill="#FFDE55"/>
<path d="M406.633 377.143C398.469 368.98 385.306 368.98 377.143 377.143C368.98 385.306 368.98 398.469 377.143 406.633L397.245 426.735C405.408 434.898 418.572 434.898 426.735 426.735C434.898 418.571 434.898 405.408 426.735 397.245L406.633 377.143Z" fill="#FFDE55"/>
<path d="M93.3671 122.857C101.53 131.02 114.694 131.02 122.857 122.857C131.02 114.694 131.02 101.531 122.857 93.3673L102.755 73.2653C94.5916 65.102 81.4283 65.102 73.265 73.2653C65.1018 81.4286 65.1018 94.5918 73.265 102.755L93.3671 122.857V122.857Z" fill="#FFDE55"/>
</svg>
